<?xml version="1.0" encoding="UTF-8"?>
<svg id="Layer_2" data-name="Layer 2" xmlns="http://www.w3.org/2000/svg" viewBox="0 0 144 144">
  <defs>
    <style>
      .cls-1 {
        fill: #edd129;
      }

      .cls-2 {
        fill: #00908f;
      }

      .cls-3 {
        fill: #f6ea80;
      }

      .cls-4 {
        fill: #08595a;
      }
    </style>
  </defs>
  <g id="Layer_1-2" data-name="Layer 1">
    <g>
      <rect class="cls-3" width="144" height="144" rx="28.35" ry="28.35"/>
      <g>
        <path class="cls-3" d="M109.12,73.53c4.7,8.07,7.58,17.33,7.58,27.34v-27.34h-7.58Z"/>
        <path class="cls-1" d="M40.81,95.45c-6.9,9.15-11.14,20.41-11.14,32.76h59.77c15.06,0,27.28-12.21,27.28-27.27v-.06h-59.7c-6.09,0-11.65-2.06-16.2-5.42Z"/>
        <path class="cls-2" d="M84.34,73.53c-17.85,0-33.55-8.68-43.53-21.92-6.73,4.98-11.14,12.91-11.14,21.92s4.42,16.94,11.14,21.92c9.98-13.24,25.68-21.92,43.53-21.92Z"/>
        <path class="cls-4" d="M84.34,73.53c-17.85,0-33.55,8.68-43.53,21.92,4.54,3.37,10.11,5.42,16.2,5.42h59.7c0-10.01-2.89-19.27-7.58-27.34h-24.78Z"/>
        <path class="cls-1" d="M62.03,46.19c20.19,0,37.62,11.06,47.09,27.34h7.58c0-30.2-24.48-54.68-54.68-54.68H29.66c0,12.34,4.24,23.61,11.14,32.76,4.54-3.36,10.11-5.42,16.2-5.42h5.02Z"/>
        <path class="cls-3" d="M84.34,73.53h24.78c-9.47-16.27-26.91-27.34-47.09-27.34h-5.02c-6.09,0-11.65,2.06-16.2,5.42,9.98,13.24,25.68,21.92,43.53,21.92Z"/>
      </g>
    </g>
  </g>
</svg>