<?xml version="1.0" encoding="UTF-8"?>
<svg id="Layer_2" data-name="Layer 2" xmlns="http://www.w3.org/2000/svg" viewBox="0 0 214.98 55">
  <defs>
    <style>
      .cls-1 {
        fill: #7b5bc4;
      }

      .cls-2 {
        fill: #d9d9d9;
      }

      .cls-3 {
        fill: #64858c;
      }

      .cls-4 {
        fill: #59ad47;
      }

      .cls-5 {
        fill: #ffde2e;
      }
    </style>
  </defs>
  <g id="logos">
    <g>
      <path class="cls-1" d="M173.88,55h-9.31c-15.9,0-27.21-13.03-27.21-27.57,0-15.82,12.1-27.42,27.78-27.42h8.74s0,11.89,0,11.89h-8.81c-8.31,0-14.18,7.09-14.18,15.47,0,8.45,5.73,15.75,14.25,15.75h8.74s0,11.89,0,11.89Z"/>
      <path class="cls-5" d="M10.85,54.99V12.34s-10.85,0-10.85,0V0s35.67,0,35.67,0v12.34s-10.78,0-10.78,0v42.65s-14.04,0-14.04,0Z"/>
      <path class="cls-2" d="M67.62,54.99l-12.71-17.76h-.15v17.76s-13.45,0-13.45,0V0s17.98,0,17.98,0c5.72,0,10.11.74,13,2.01,5.94,2.68,10.11,9.14,10.11,16.94,0,8.69-5.2,15.83-13.67,17.31l14.94,18.73h-16.05ZM59.97,27.64c5.57,0,8.99-2.6,8.99-7.88,0-4.76-3.57-7.43-8.84-7.43h-5.35v15.31h5.2Z"/>
      <path class="cls-4" d="M125.36,54.99l-4.83-7.95h-15.9s0,7.95,0,7.95h-14.04s0-54.99,0-54.99h13.9s37.75,54.99,37.75,54.99h-16.87ZM104.78,20.66h-.15v15.23s9.21,0,9.21,0l-9.07-15.23Z"/>
      <path class="cls-3" d="M184.44,54.99V0s30.54,0,30.54,0v12.34s-17.09,0-17.09,0v8.55s16.57,0,16.57,0v12.34s-16.57,0-16.57,0v9.44s17.09,0,17.09,0v12.34s-30.54,0-30.54,0Z"/>
    </g>
  </g>
</svg>