<?xml version="1.0" encoding="UTF-8"?>
<svg id="Layer_2" data-name="Layer 2" xmlns="http://www.w3.org/2000/svg" viewBox="0 0 822 348.59">
  <defs>
    <style>
      .cls-1 {
        fill: #e6e6e6;
      }

      .cls-2 {
        fill: #1f3940;
      }

      .cls-3 {
        fill: #fc794d;
      }

      .cls-4 {
        fill: #21994a;
      }

      .cls-5 {
        fill: #64858c;
      }

      .cls-6 {
        fill: #223740;
      }

      .cls-7 {
        fill: #9f30b8;
      }
    </style>
  </defs>
  <g id="logos">
    <g>
      <rect class="cls-1" width="822" height="348.59"/>
      <path class="cls-3" d="M613.74,39.41v30.83h-24.29c-13.1,0-25.13,5.41-33.86,15.24-8.43,9.48-13.07,22.16-13.07,35.69,0,13.73,4.58,26.58,12.91,36.19,8.73,10.08,20.89,15.62,34.25,15.62h24.07v30.83s-25.84,0-25.84,0c-22.46,0-43.22-8.84-58.45-24.89-14.53-15.31-22.86-36.29-22.86-57.54,0-22.78,8.5-43.64,23.92-58.73,15.32-14.99,36.33-23.25,59.17-23.25h24.07M616.74,36.41h-27.07c-48.59,0-86.09,35.94-86.09,84.98,0,45.04,35.06,85.43,84.32,85.43h28.84v-36.83h-27.07c-26.4,0-44.15-22.63-44.15-48.81,0-25.96,18.19-47.93,43.93-47.93h27.29v-36.83h0Z"/>
      <path class="cls-6" d="M185.44,39.38v32.23h-30.39l-3,3v129.18h-37.52V74.61l-3-3h-30.62v-32.23h104.53M188.44,36.38h-110.53v38.23h33.62v132.18h43.52V74.61h33.39v-38.23h0Z"/>
      <path class="cls-7" d="M261.67,39.38c16.62,0,30.14,2.06,39.07,5.95,17.95,8.08,29.55,27.61,29.55,49.77,0,12.75-3.71,24.29-10.72,33.37-7.13,9.24-17.22,15.23-29.17,17.33l-1.83,4.83,42.4,53.16h-41.97l-38.48-53.78-2.44-1.25h-.46l-3,3v52.04h-35.68V39.38s52.73,0,52.73,0M247.62,125.04h16.12c19.61,0,30.86-9.99,30.86-27.41,0-8.05-3-14.74-8.68-19.37-5.35-4.36-12.86-6.66-21.73-6.66h-16.58l-3,3v47.44l3,3M261.67,36.38h-55.73v170.41h41.68v-55.04h.46l39.38,55.04h49.74l-46.29-58.03c26.25-4.61,42.37-26.71,42.37-53.66,0-24.18-12.9-44.21-31.32-52.5-8.98-3.91-22.57-6.22-40.3-6.22h0ZM247.62,122.04v-47.44h16.58c16.35,0,27.4,8.29,27.4,23.03,0,16.35-10.59,24.41-27.86,24.41h-16.12Z"/>
      <path class="cls-4" d="M400.1,39.38l112.86,164.41h-44.89l-14.09-23.2-2.56-1.44h-49.28l-3,3v21.64h-37.52V39.38s38.48,0,38.48,0M402.14,150.6h28.55l2.58-4.53-28.09-47.21-2.58-1.47h-.46l-3,3v47.21l3,3M401.67,36.38h-43.06v170.41h43.52v-24.64h49.28l14.97,24.64h52.27l-116.98-170.41h0ZM402.14,147.6v-47.21h.46l28.09,47.21h-28.55Z"/>
      <path class="cls-5" d="M741.09,39.38v32.23h-49.96l-3,3v26.48l3,3h48.35v32.23h-48.35l-3,3v29.25l3,3h49.96v32.23h-88.64V39.38s88.64,0,88.64,0M744.09,36.38h-94.64s0,170.41,0,170.41h94.64v-38.23h-52.96v-29.25h51.35v-38.23h-51.35v-26.48h52.96v-38.23h0Z"/>
      <g>
        <path class="cls-2" d="M723.95,209.75v78h19.84v22.56h-65.23v-22.56h19.7v-78h25.68Z"/>
        <path class="cls-2" d="M674.62,257.72c0,31.12-22.42,54.49-53,54.49s-53.13-22.69-53.13-51.5,23.1-52.86,51.91-52.86,54.22,20.11,54.22,49.87ZM594.18,259.89c0,15.76,11.28,29.76,27.45,29.76s27.31-13.45,27.31-29.35-11.28-29.9-27.72-29.9-27.04,13.45-27.04,29.49Z"/>
        <path class="cls-2" d="M506.53,209.75l23.24,32.48h.27v-32.48h24.6v100.56h-32.88c-10.46,0-18.48-1.36-23.78-3.67-10.87-4.89-18.48-16.71-18.48-30.98,0-15.9,9.51-28.94,25-31.66l-27.31-34.24h29.35ZM520.52,259.76c-10.19,0-16.44,4.76-16.44,14.4,0,8.7,6.52,13.59,16.17,13.59h9.78v-27.99h-9.51Z"/>
        <path class="cls-2" d="M468.89,257.72c0,31.12-22.42,54.49-53,54.49s-53.13-22.69-53.13-51.5,23.1-52.86,51.91-52.86,54.22,20.11,54.22,49.87ZM388.44,259.89c0,15.76,11.28,29.76,27.45,29.76s27.31-13.45,27.31-29.35-11.28-29.9-27.72-29.9-27.04,13.45-27.04,29.49Z"/>
        <path class="cls-2" d="M286.39,209.75l38.59,61.42-.68-61.42h24.6v100.56h-22.15l-39.14-63.6,1.09,63.6h-24.6v-100.56h22.29Z"/>
        <path class="cls-2" d="M233.67,209.75v78h19.84v22.56h-65.23v-22.56h19.7v-78h25.68Z"/>
        <path class="cls-2" d="M184.34,257.72c0,31.12-22.42,54.49-53,54.49s-53.13-22.69-53.13-51.5,23.1-52.86,51.91-52.86,54.22,20.11,54.22,49.87ZM103.89,259.89c0,15.76,11.28,29.76,27.45,29.76s27.31-13.45,27.31-29.35-11.28-29.9-27.72-29.9-27.04,13.45-27.04,29.49Z"/>
      </g>
    </g>
  </g>
</svg>