<?xml version="1.0" encoding="UTF-8"?>
<svg id="Layer_2" data-name="Layer 2" xmlns="http://www.w3.org/2000/svg" viewBox="0 0 320.57 55.97">
  <defs>
    <style>
      .cls-1 {
        fill: #7b5bc4;
      }

      .cls-2 {
        fill: #d9d9d9;
      }

      .cls-3 {
        fill: #64858c;
      }

      .cls-4 {
        fill: #59ad47;
      }

      .cls-5 {
        fill: #ffde2e;
      }
    </style>
  </defs>
  <g id="logos">
    <g>
      <g>
        <path class="cls-1" d="M173.4,1.46v9.95h-7.84c-8.49,0-15.15,7.22-15.15,16.43s6.54,16.72,15.22,16.72h7.77v9.95h-8.34c-7.25,0-13.95-2.85-18.86-8.03-4.69-4.94-7.38-11.71-7.38-18.57,0-15.08,11.53-26.46,26.81-26.46h7.77M174.37.49h-8.74c-15.68,0-27.78,11.6-27.78,27.42,0,14.54,11.31,27.57,27.21,27.57h9.31v-11.89h-8.74c-8.52,0-14.25-7.3-14.25-15.75s5.87-15.47,14.18-15.47h8.81V.49h0Z"/>
        <path class="cls-5" d="M35.18,1.45v10.4h-9.81l-.97.97v41.69h-12.11V12.82l-.97-.97H1.45V1.45h33.73M36.15.48H.48v12.34h10.85v42.65h14.04V12.82h10.77V.48h0Z"/>
        <path class="cls-2" d="M59.78,1.45c5.36,0,9.73.67,12.61,1.92,5.79,2.61,9.54,8.91,9.54,16.06,0,8.44-5.17,15.01-12.87,16.36l-.59,1.56,13.68,17.15h-13.54l-12.42-17.36-.79-.4h-.15l-.97.97v16.79h-11.51V1.45h17.02M55.25,29.1h5.2c6.33,0,9.96-3.22,9.96-8.84,0-5.1-3.85-8.4-9.81-8.4h-5.35l-.97.97v15.31s.97.97.97.97M59.78.48h-17.98v54.99h13.45v-17.76h.15l12.71,17.76h16.05l-14.94-18.73c8.47-1.49,13.67-8.62,13.67-17.31,0-7.8-4.16-14.27-10.11-16.94-2.9-1.26-7.28-2.01-13-2.01h0ZM55.25,28.13v-15.31s5.35,0,5.35,0c5.28,0,8.84,2.68,8.84,7.43,0,5.28-3.42,7.88-8.99,7.88h-5.2Z"/>
        <path class="cls-4" d="M104.45,1.45l36.42,53.05h-14.48l-4.55-7.49-.83-.47h-15.9s-.97.97-.97.97v6.98h-12.11V1.45s12.42,0,12.42,0M105.11,37.34h9.21l.83-1.46-9.07-15.23-.83-.47h-.15l-.97.97v15.23l.97.97M104.96.48h-13.9s0,54.99,0,54.99h14.04v-7.95h15.9s4.83,7.95,4.83,7.95h16.87L104.96.48h0ZM105.11,36.38v-15.23h.15l9.07,15.23h-9.21Z"/>
        <path class="cls-3" d="M214.49,1.45v10.4h-16.12l-.97.97v8.55l.97.97h15.6v10.4h-15.6l-.97.97v9.44l.97.97h16.12s0,10.4,0,10.4h-28.61V1.45h28.61M215.46.48h-30.54v54.99h30.54v-12.34h-17.09s0-9.44,0-9.44h16.57v-12.34h-16.57v-8.55h17.09V.48h0Z"/>
      </g>
      <g>
        <path class="cls-5" d="M238.65,54.48V13.37s-10.46,0-10.46,0V1.49s34.37,0,34.37,0v11.89s-10.38,0-10.38,0v41.11s-13.54,0-13.54,0Z"/>
        <path class="cls-5" d="M264.64,29.2c0-16.4,11.82-28.72,27.93-28.72s28,11.96,28,27.14-12.17,27.86-27.36,27.86-28.57-10.6-28.57-26.28ZM307.04,28.06c0-8.31-5.94-15.68-14.47-15.68-8.45,0-14.39,7.09-14.39,15.47s5.94,15.76,14.61,15.76,14.25-7.09,14.25-15.54Z"/>
      </g>
    </g>
  </g>
</svg>