<svg width="24" height="24" viewBox="0 0 24 24" fill="none" xmlns="http://www.w3.org/2000/svg">
<path fill-rule="evenodd" clip-rule="evenodd" d="M19.9727 11.3337C19.6341 7.22719 16.1939 4 12 4C7.58172 4 4 7.58172 4 12C4 11.7755 4.00925 11.5532 4.02738 11.3333H7.53304L10.1188 4.22245C10.602 4.106 11.1023 4.03341 11.6151 4.00911L8.95179 11.3333H15.0482L12.3849 4.00912C12.8977 4.03341 13.398 4.106 13.8812 4.22245L16.467 11.3333L19.9727 11.3337C19.9727 11.3339 19.9727 11.3336 19.9727 11.3337ZM19.9727 11.3337C19.9907 11.5534 20 11.7757 20 12L19.9727 11.3337ZM4.02738 12.6667C4.31382 16.1386 6.81731 18.9819 10.1189 19.7776L7.53309 12.6667H4.02738ZM11.6152 19.9909C11.7427 19.9969 11.871 20 12 20C12.129 20 12.2573 19.9969 12.3849 19.9909L15.0482 12.6667H8.95185L11.6152 19.9909ZM13.8812 19.7776C17.1827 18.9819 19.6862 16.1386 19.9726 12.6667H16.4669L13.8812 19.7776Z" fill="#0F2229"/>
</svg>
