<svg width="24" height="24" viewBox="0 0 24 24" fill="none" xmlns="http://www.w3.org/2000/svg">
<path d="M19.9116 14.3333L14.2449 20H10.6355V16.3906L16.3022 10.7233L19.9116 14.3333ZM11.9688 4C12.7131 4.00003 13.4469 4.10393 14.1505 4.30339L14.6355 4.44076V5.88802C15.0956 6.08905 15.5285 6.34082 15.9272 6.63541L17.1817 5.91081L17.543 6.26237C17.5705 6.28907 17.598 6.31599 17.6251 6.3431C18.6544 7.37236 19.3748 8.6532 19.7254 10.041L19.8484 10.5299L18.672 11.2083L16.3022 8.83854L14.3464 10.7936C13.906 9.92741 13.0071 9.33339 11.9688 9.33333C10.4961 9.33342 9.30216 10.5273 9.30216 12C9.30216 13.0383 9.89623 13.9371 10.7624 14.3776L9.30216 15.8385V18.112C8.84201 17.9109 8.40852 17.6592 8.00984 17.3646L6.75529 18.0892L6.39396 17.7376C6.3665 17.7109 6.33906 17.684 6.31193 17.6569C5.82394 17.1689 5.4051 16.6242 5.06258 16.0384L5.06063 16.0351L5.01831 15.9623C4.66043 15.3344 4.38943 14.6601 4.21232 13.959L4.08862 13.4701L5.34318 12.7461C5.31586 12.501 5.30216 12.2519 5.30216 12C5.30216 11.7481 5.31586 11.499 5.34318 11.2539L4.08862 10.5299L4.21232 10.041C4.38951 9.33954 4.66083 8.66522 5.01896 8.03711L5.02091 8.03385L5.06193 7.96224C5.40453 7.37619 5.82372 6.83131 6.31193 6.3431C6.33905 6.31598 6.36649 6.28906 6.39396 6.26237L6.75529 5.91081L8.00984 6.63541C8.40852 6.3408 8.84201 6.08906 9.30216 5.88802V4.44076L9.78654 4.30339C10.4902 4.10391 11.2245 4.00002 11.9688 4Z" fill="#2D4855"/>
</svg>
