<svg width="24" height="24" viewBox="0 0 24 24" fill="none" xmlns="http://www.w3.org/2000/svg">
<path fill-rule="evenodd" clip-rule="evenodd" d="M11.9999 20L11.5999 19.7L11.5979 19.6985L11.5938 19.6954L11.5791 19.6842C11.5665 19.6747 11.5483 19.6608 11.5251 19.6428C11.4785 19.6069 11.4113 19.5544 11.3264 19.4867C11.1567 19.3513 10.9157 19.1545 10.6274 18.9062C10.0517 18.4105 9.282 17.7051 8.51005 16.8689C7.74008 16.0347 6.95465 15.0561 6.35859 14.0131C5.76569 12.9755 5.33325 11.8273 5.33325 10.6667C5.33325 6.98477 8.31802 4 11.9999 4C15.6818 4 18.6666 6.98477 18.6666 10.6667C18.6666 11.8273 18.2341 12.9755 17.6413 14.0131C17.0452 15.0561 16.2598 16.0347 15.4898 16.8689C14.7179 17.7051 13.9481 18.4105 13.3725 18.9062C13.0841 19.1545 12.8432 19.3513 12.6735 19.4867C12.5885 19.5544 12.5213 19.6069 12.4748 19.6428C12.4515 19.6608 12.4334 19.6747 12.4208 19.6842L12.4061 19.6954L12.4019 19.6985L12.3999 19.7L11.9999 20ZM11.9999 6.84103L13.2082 8.91233L15.4399 9.59899L13.9173 11.1216L14.4304 13.6874L11.9999 12.5909L9.56946 13.6874L10.0826 11.1216L8.56 9.59899L10.7917 8.91233L11.9999 6.84103Z" fill="#2D4855"/>
</svg>
