<svg width="24" height="24" viewBox="0 0 24 24" fill="none" xmlns="http://www.w3.org/2000/svg">
<path fill-rule="evenodd" clip-rule="evenodd" d="M15.1608 7.89647C14.4523 7.34992 13.5982 6.98279 12.6667 6.86313V4H11.3333V6.86317C10.9904 6.90724 10.658 6.98485 10.3395 7.09259L10.3321 7.09505C9.78833 7.27991 9.28505 7.55269 8.83931 7.8965L6.81451 5.87169L5.87169 6.81451L7.89643 8.83924C7.3499 9.54765 6.98267 10.4016 6.86297 11.3333H4V12.6667H6.86299C6.98269 13.5982 7.34985 14.4523 7.89643 15.1608L5.87186 17.1853L6.81467 18.1282L8.83922 16.1036C9.54776 16.6502 10.4018 17.0174 11.3333 17.1371V20H12.6667V17.1372C13.5983 17.0175 14.4523 16.6503 15.1609 16.1037L17.1853 18.1282L18.1282 17.1853L16.1037 15.1609C16.6503 14.4523 17.0175 13.5983 17.1372 12.6667H20V11.3333H17.1371C17.0174 10.4018 16.6502 9.54779 16.1037 8.83925L18.1284 6.81451L17.1856 5.87169L15.1608 7.89647ZM9.15314 14.5862C8.53234 13.9032 8.15397 12.9959 8.15397 12.0001C8.15397 10.763 8.73809 9.66225 9.64557 8.95869C9.6425 9.03193 9.64094 9.10555 9.64094 9.17951C9.64094 12.0401 11.9599 14.359 14.8205 14.359C14.8946 14.359 14.9683 14.3575 15.0418 14.3543C14.3379 15.2623 13.2367 15.8461 12 15.8461C10.938 15.8461 9.9765 15.4157 9.28049 14.7198C9.23699 14.6763 9.19453 14.6317 9.15314 14.5862Z" fill="#2D4855"/>
</svg>
