<svg width="24" height="24" viewBox="0 0 24 24" fill="none" xmlns="http://www.w3.org/2000/svg">
<path fill-rule="evenodd" clip-rule="evenodd" d="M15.2727 4C12.6619 4 10.5455 6.11647 10.5455 8.72727C10.5455 11.3381 12.6619 13.4545 15.2727 13.4545C17.8836 13.4545 20 11.3381 20 8.72727C20 6.11647 17.8836 4 15.2727 4ZM4 14.9091C4 12.9008 5.62806 11.2727 7.63636 11.2727C9.64467 11.2727 11.2727 12.9008 11.2727 14.9091C11.2727 16.9174 9.64467 18.5455 7.63636 18.5455C5.62806 18.5455 4 16.9174 4 14.9091ZM14.5455 14.9091C13.1396 14.9091 12 16.0487 12 17.4545C12 18.8604 13.1396 20 14.5455 20C15.9513 20 17.0909 18.8604 17.0909 17.4545C17.0909 16.0487 15.9513 14.9091 14.5455 14.9091Z" fill="#2D4855"/>
</svg>
