<svg width="24" height="24" viewBox="0 0 24 24" fill="none" xmlns="http://www.w3.org/2000/svg">
<path fill-rule="evenodd" clip-rule="evenodd" d="M5.59865 5.34427H9.55912L5.63421 9.86034L5.46939 10.05V11.3935H10.9757V10.0492H7.25108L10.8109 5.95321L10.9757 5.76356V4H5.59865V5.34427ZM19.0413 7.69673H12.9921V6.35247H19.0413V7.69673ZM19.0413 11.0574H12.9921V9.71313H19.0413V11.0574ZM12.9921 14.4181H19.0413V13.0738H12.9921V14.4181ZM19.0413 17.7787H12.9921V16.4345H19.0413V17.7787ZM7.74948 12.4017H7.25885L7.10932 12.8689L4.9585 19.5903L6.2388 20L6.78599 18.29H9.78839L10.3356 20L11.6159 19.5903L9.46504 12.8689L9.31551 12.4017H7.74948ZM9.35822 16.9458H7.21615L8.2401 13.7459H8.33427L9.35822 16.9458Z" fill="#2D4855"/>
</svg>
