<svg width="24" height="24" viewBox="0 0 24 24" fill="none" xmlns="http://www.w3.org/2000/svg">
<path fill-rule="evenodd" clip-rule="evenodd" d="M11.5988 16.5324L12.0001 16.8348L12.4013 16.5324L12.4031 16.5311L12.4065 16.5285L12.4183 16.5195C12.4284 16.5117 12.4428 16.5007 12.4612 16.4864C12.4979 16.4579 12.5509 16.4164 12.6175 16.3629C12.7508 16.2561 12.9396 16.1011 13.1655 15.9057C13.6161 15.5157 14.2191 14.9605 14.8243 14.3015C15.4276 13.6448 16.0462 12.871 16.5171 12.0429C16.9849 11.2203 17.3334 10.2978 17.3334 9.35632C17.3334 6.4012 14.9487 4 12.0001 4C9.05146 4 6.66673 6.4012 6.66673 9.35632C6.66673 10.2978 7.01527 11.2203 7.48303 12.0429C7.9539 12.871 8.57249 13.6448 9.17576 14.3015C9.78097 14.9605 10.384 15.5157 10.8347 15.9057C11.0605 16.1011 11.2493 16.2561 11.3826 16.3629C11.4493 16.4164 11.5021 16.4579 11.5389 16.4864C11.5573 16.5007 11.5717 16.5117 11.5817 16.5195L11.5936 16.5285L11.5971 16.5311L11.5988 16.5324ZM11.0001 8.33333H13.0001V10.3333H11.0001V8.33333ZM13.2038 17.5972L12.0001 18.5045L10.7951 17.5963L10.7918 17.5938L10.7855 17.589L10.7719 17.5787C10.7594 17.5691 10.7425 17.5561 10.7215 17.5398C10.6795 17.5072 10.6211 17.4614 10.5487 17.4033C10.404 17.2873 10.2022 17.1216 9.96217 16.9139C9.48507 16.5011 8.84279 15.9101 8.1938 15.2035C8.03757 15.0335 7.87864 14.8542 7.71982 14.6667H6.18623L4.40845 20H19.5917L17.8139 14.6667H16.2803C16.1215 14.8542 15.9625 15.0335 15.8063 15.2035C15.1573 15.9101 14.5151 16.5011 14.0379 16.9139C13.7979 17.1216 13.5961 17.2873 13.4514 17.4033C13.379 17.4614 13.3206 17.5072 13.2786 17.5398C13.2576 17.5561 13.2407 17.5691 13.2281 17.5787L13.2265 17.58L13.2117 17.5912L13.2067 17.595L13.2038 17.5972Z" fill="#2D4855"/>
</svg>
