<svg width="24" height="24" viewBox="0 0 24 24" fill="none" xmlns="http://www.w3.org/2000/svg">
<path fill-rule="evenodd" clip-rule="evenodd" d="M10.5001 4C9.08359 4 7.70585 4.37567 6.50009 5.07177L5.5 5.64913L6.50009 6.22649C7.00039 6.51531 7.46517 6.87035 7.88078 7.28595C9.13103 8.5362 9.8334 10.2319 9.8334 12C9.8334 13.7681 9.13103 15.4638 7.88078 16.7141C7.46517 17.1297 7.00039 17.4847 6.50009 17.7735L5.5 18.3509L6.50009 18.9283C7.70585 19.6243 9.08359 20 10.5001 20C12.6218 20 14.6567 19.1571 16.1569 17.6569C17.6572 16.1565 18.5001 14.1217 18.5001 12C18.5001 9.87827 17.6572 7.84344 16.1569 6.34315C14.6567 4.84285 12.6218 4 10.5001 4Z" fill="#2D4855"/>
</svg>
