<svg width="24" height="24" viewBox="0 0 24 24" fill="none" xmlns="http://www.w3.org/2000/svg">
<path fill-rule="evenodd" clip-rule="evenodd" d="M6.79442 4H17.1977L20.7257 12L17.1977 20H6.79442L3.27441 12L6.79442 4ZM10.5417 11.2727L10.5417 9.09092L9.08718 9.0909L9.08717 11.2727H10.5417ZM14.9054 9.09092V11.2727H13.4508V9.0909L14.9054 9.09092ZM7.88218 13.9322C8.9733 15.0233 10.4532 15.6364 11.9963 15.6364C13.5393 15.6364 15.0192 15.0233 16.1103 13.9322L15.0818 12.9037C14.2635 13.722 13.1536 14.1818 11.9963 14.1818C10.839 14.1818 9.72904 13.722 8.9107 12.9037L7.88218 13.9322Z" fill="#2D4855"/>
</svg>
