<svg width="24" height="24" viewBox="0 0 24 24" fill="none" xmlns="http://www.w3.org/2000/svg">
<path fill-rule="evenodd" clip-rule="evenodd" d="M8.3493 4L8.34926 16.3333H10.0159L10.0159 17.3333L7.34925 20L4.68262 17.3334V16.3333H6.34926L6.3493 4L8.3493 4ZM14.996 4H17.036L17.1842 4.46348L19.3176 11.1301L18.0477 11.5365L17.5049 9.84038H14.527L13.9842 11.5365L12.7144 11.1301L14.8477 4.46348L14.996 4ZM14.9537 8.50705H17.0782L16.0626 5.33333H15.9693L14.9537 8.50705ZM17.2776 14H13.3493V12.6667H18.6826V14.4159L18.5192 14.604L14.9883 18.6667H18.6826V20H13.2211V18.6675L13.3846 18.4793L17.2776 14Z" fill="#2D4855"/>
</svg>
