<svg width="24" height="24" viewBox="0 0 24 24" fill="none" xmlns="http://www.w3.org/2000/svg">
<path fill-rule="evenodd" clip-rule="evenodd" d="M12 4C9.87827 4 7.84344 4.84285 6.34315 6.34315C4.84285 7.84344 4 9.87827 4 12C4 14.1217 4.84285 16.1565 6.34315 17.6569C7.84344 19.1571 9.87827 20 12 20C12.6805 20 13.3521 19.9133 14 19.746V14H19.746C19.9133 13.3521 20 12.6805 20 12C20 9.87827 19.1571 7.84344 17.6569 6.34315C16.1565 4.84285 14.1217 4 12 4ZM19.1075 15.3333L15.3333 19.1075V15.3333H19.1075ZM10.6667 11.3333L10.6667 9.33334L9.33333 9.33333L9.33332 11.3333H10.6667ZM14.6667 9.33334V11.3333H13.3333V9.33333L14.6667 9.33334ZM8.22875 13.7712C9.22895 14.7714 10.5855 15.3333 12 15.3333V14C10.9391 14 9.92171 13.5785 9.17156 12.8284L8.22875 13.7712Z" fill="#2D4855"/>
</svg>
