<svg width="24" height="24" viewBox="0 0 24 24" fill="none" xmlns="http://www.w3.org/2000/svg">
<path fill-rule="evenodd" clip-rule="evenodd" d="M6.34315 6.34315C7.84344 4.84285 9.87827 4 12 4C14.1217 4 16.1565 4.84285 17.6569 6.34315C19.1571 7.84344 20 9.87827 20 12C20 14.1217 19.1571 16.1565 17.6569 17.6569C16.1565 19.1571 14.1217 20 12 20C10.7605 20 9.55059 19.7123 8.45968 19.174L5.09528 19.6598L4.20843 19.7879L4.34063 18.9017L4.83833 15.5652C4.29207 14.4678 4 13.2489 4 12C4 9.87827 4.84285 7.84344 6.34315 6.34315ZM11.6667 7.5V8.83333H13V7.5H11.6667ZM10.3333 10.1667H13V14.1667H14.3333V15.5H10.3333V14.1667H11.6667V11.5H10.3333V10.1667Z" fill="#EBF2EE"/>
</svg>
