<svg width="26" height="26" viewBox="0 0 26 26" fill="none" xmlns="http://www.w3.org/2000/svg">
<path fill-rule="evenodd" clip-rule="evenodd" d="M14.6251 2.83581V0H11.375V2.83581C6.99253 3.53095 3.53105 6.99243 2.83591 11.3749H0V14.625H2.83591C3.53105 19.0075 6.99253 22.469 11.375 23.164V26H14.6251V23.164C19.0076 22.469 22.4691 19.0075 23.1641 14.625H26.0001V11.3749H23.1641C22.4691 6.99243 19.0076 3.53095 14.6251 2.83581ZM5.95836 12.9999C5.95836 9.11093 9.11103 5.95826 13 5.95826C16.8891 5.95826 20.0417 9.11093 20.0417 12.9999C20.0417 16.889 16.8891 20.0416 13 20.0416C9.11103 20.0416 5.95836 16.889 5.95836 12.9999ZM9.75004 9.74994H16.2501V16.25H9.75004V9.74994Z" fill="#2D4855"/>
</svg>
