<?xml version="1.0" encoding="UTF-8"?>
<svg id="Layer_2" data-name="Layer 2" xmlns="http://www.w3.org/2000/svg" viewBox="0 0 115.2 60.15">
  <defs>
    <style>
      .cls-1 {
        fill: none;
      }

      .cls-2 {
        fill: #edd129;
      }

      .cls-3 {
        fill: #00908f;
      }

      .cls-4 {
        fill: #f6ea80;
      }

      .cls-5 {
        fill: #08595a;
      }
    </style>
  </defs>
  <g id="Layer_1-2" data-name="Layer 1">
    <g>
      <rect class="cls-1" y="0" width="115.2" height="60.15" rx="13.16" ry="13.16"/>
      <g>
        <path class="cls-4" d="M73.1,30.71c1.96,3.37,3.17,7.24,3.17,11.42v-11.42h-3.17Z"/>
        <path class="cls-4" d="M44.57,39.87c-2.88,3.82-4.65,8.53-4.65,13.68h24.96c6.29,0,11.39-5.1,11.39-11.39v-.03h-24.94c-2.54,0-4.87-.86-6.76-2.26Z"/>
        <path class="cls-3" d="M62.75,30.71c-7.46,0-14.02-3.63-18.18-9.16-2.81,2.08-4.65,5.39-4.65,9.16s1.84,7.08,4.65,9.16c4.17-5.53,10.73-9.16,18.18-9.16Z"/>
        <path class="cls-5" d="M62.75,30.71c-7.46,0-14.02,3.63-18.18,9.16,1.9,1.41,4.22,2.26,6.76,2.26h24.94c0-4.18-1.21-8.05-3.17-11.42h-10.35Z"/>
        <path class="cls-4" d="M53.43,19.29c8.43,0,15.71,4.62,19.67,11.42h3.17c0-12.61-10.23-22.84-22.84-22.84h-13.52c0,5.16,1.77,9.86,4.65,13.68,1.9-1.41,4.22-2.26,6.76-2.26h2.1Z"/>
        <path class="cls-2" d="M62.75,30.71h10.35c-3.96-6.8-11.24-11.42-19.67-11.42h-2.1c-2.54,0-4.87.86-6.76,2.26,4.17,5.53,10.73,9.16,18.18,9.16Z"/>
      </g>
    </g>
  </g>
</svg>