<svg width="94" height="16" viewBox="0 0 94 16" fill="none" xmlns="http://www.w3.org/2000/svg">
<g clip-path="url(#clip0_4125_13088)">
<path d="M50.9556 16H48.2273C43.5678 16 40.2534 12.2095 40.2534 7.97966C40.2534 3.37748 43.7993 0.00292969 48.3944 0.00292969H50.9556V3.46184H48.3739C45.9386 3.46184 44.2184 5.52438 44.2184 7.9622C44.2184 10.4204 45.8976 12.544 48.3944 12.544H50.9556V16.0029V16Z" fill="#E7E626"/>
<path d="M3.1796 15.9971V3.58982H0V0H10.4531V3.58982H7.29403V15.9971H3.1796Z" fill="#E7E626"/>
<path d="M19.8161 15.9971L16.0914 10.8305H16.0474V15.9971H12.1059V0H17.3749C19.0512 0 20.3377 0.215273 21.1846 0.584727C22.9253 1.36436 24.1473 3.24364 24.1473 5.51273C24.1473 8.04073 22.6235 10.1178 20.1413 10.5484L24.5195 15.9971H19.8161ZM17.5742 8.04073C19.2065 8.04073 20.2087 7.28436 20.2087 5.74836C20.2087 4.36364 19.1626 3.58691 17.6182 3.58691H16.0504V8.04073H17.5742Z" fill="#E7E626"/>
<path d="M36.7368 15.9971L35.3214 13.6844H30.6619V15.9971H26.5474V0H30.6208L41.6835 15.9971H36.7397H36.7368ZM30.7058 6.01018H30.6619V10.4407H33.3608L30.7029 6.01018H30.7058Z" fill="#E7E626"/>
<path d="M54.0502 15.9971V0H63V3.58982H57.9918V6.07709H62.8476V9.66691H57.9918V12.4131H63V16.0029H54.0502V15.9971Z" fill="#E7E626"/>
</g>
<path d="M67.8111 14.3551L70.0214 14.2056C70.3218 14.1842 70.3648 14.0988 70.3648 13.7784V2.11482H67.4892C67.2532 2.11482 67.1888 2.13618 67.1459 2.3498L66.8026 4.20828H65V0.277704H78.2402V4.20828H76.4591L76.1158 2.3498C76.0728 2.13618 76.0085 2.11482 75.7724 2.11482H72.8755V13.7784C72.8755 14.0774 72.8969 14.1629 73.2188 14.1842L75.5793 14.3551V15.7437H67.8111V14.3551Z" fill="#F5F9F6"/>
<path d="M86.5537 16C81.4894 16 79.3006 12.6676 79.3006 7.96796C79.3006 3.43925 81.8757 0 86.8542 0C91.8326 0 94 3.43925 94 7.73298C94 12.753 91.5537 16 86.5537 16ZM86.6396 13.9279C89.4721 13.9279 91.4249 12.1549 91.4249 7.92523C91.4249 3.99466 89.6653 2.0721 86.8327 2.0721C83.9357 2.0721 81.8971 4.01602 81.8971 7.9466C81.8971 12.0694 83.7641 13.9279 86.6396 13.9279Z" fill="#F5F9F6"/>
<defs>
<clipPath id="clip0_4125_13088">
<rect width="63" height="16" fill="white"/>
</clipPath>
</defs>
</svg>
