<svg width="24" height="24" viewBox="0 0 24 24" fill="none" xmlns="http://www.w3.org/2000/svg">
<path fill-rule="evenodd" clip-rule="evenodd" d="M14.3124 16.2432C15.0543 15.587 16.1043 15.1304 17.5651 15.1304V13.7391V6.08696V4C15.2523 4 13.9693 5.14429 13.3085 6.41381C13.3085 6.41391 13.3086 6.4137 13.3085 6.41381C12.8565 7.28252 12.6956 8.21014 12.6956 8.86957V15.9377V20C12.6956 19.05 13.0292 17.544 14.0869 16.4582C14.1587 16.3845 14.2338 16.3128 14.3124 16.2432ZM18.9564 16.5217H17.5651C16.0707 16.5217 15.2711 17.1133 14.7986 17.7695C14.609 18.0328 14.4634 18.3206 14.3548 18.6087H20.3478V17.913V6.78261V6.08696H19.6521H18.9564V15.1304V16.5217ZM4.34775 6.08696H3.6521V6.78261V17.913V18.6087H9.91297C10.6814 18.6087 11.3043 19.2316 11.3043 20V8.86957V6.78235C10.7229 6.3457 10.0003 6.08696 9.21732 6.08696H4.34775Z" fill="#2D4855"/>
</svg>
