<svg width="24" height="24" viewBox="0 0 24 24" fill="none" xmlns="http://www.w3.org/2000/svg">
<path fill-rule="evenodd" clip-rule="evenodd" d="M6.61681 9.23344C6.61681 7.54263 7.39554 6.03419 8.61649 5.04619L7.76992 4C6.24676 5.23254 5.271 7.11929 5.271 9.23344H6.61681ZM8.63553 9.23344C8.63553 7.37526 10.1419 5.86891 12.0001 5.86891C13.8582 5.86891 15.3646 7.37526 15.3646 9.23344H16.7104C16.7104 6.63199 14.6015 4.52309 12.0001 4.52309C9.39861 4.52309 7.28972 6.63199 7.28972 9.23344H8.63553ZM17.3833 9.23344C17.3833 7.54263 16.6045 6.03419 15.3836 5.04619L16.2302 4C17.7533 5.23254 18.7291 7.11929 18.7291 9.23344H17.3833ZM10.6542 7.21471H11.3272C12.4421 7.21471 13.3459 8.11852 13.3459 9.23343V12.1542L18.0562 14.173V20H9.70262L5.9439 16.2413V15.9626C5.9439 15.1782 6.69461 14.612 7.44875 14.8274L10.6542 15.7433V7.21471Z" fill="#EBF2EE"/>
</svg>
