<svg width="24" height="24" viewBox="0 0 24 24" fill="none" xmlns="http://www.w3.org/2000/svg">
<path fill-rule="evenodd" clip-rule="evenodd" d="M15.5906 7.59035L15.1185 8.06243L12.4723 10.7086L12.0002 11.1807L11.5282 10.7086L8.882 8.06243L8.40991 7.59035L8.882 7.11826L11.5282 4.47208L12.0002 4L12.4723 4.47208L15.1185 7.11826L15.5906 7.59035ZM19.5285 12.4721L20.0006 12L19.5285 11.5279L16.8823 8.88175L16.4103 8.40966L15.9382 8.88175L13.292 11.5279L12.8199 12L13.292 12.4721L15.9382 15.1182L16.4103 15.5904L16.8823 15.1182L19.5285 12.4721ZM15.5906 16.4097L15.1185 16.8818L12.4723 19.5279L12.0002 20L11.5282 19.5279L8.882 16.8818L8.40991 16.4097L8.882 15.9376L11.5282 13.2914L12.0002 12.8193L12.4723 13.2914L15.1185 15.9376L15.5906 16.4097ZM11.18 12L10.7078 12.4721L8.0617 15.1182L7.58961 15.5904L7.11753 15.1182L4.47135 12.4721L3.99927 12L4.47135 11.5279L7.11753 8.88175L7.58961 8.40966L8.0617 8.88175L10.7078 11.5279L11.18 12Z" fill="#0D7A82"/>
</svg>
