<svg width="24" height="24" viewBox="0 0 24 24" fill="none" xmlns="http://www.w3.org/2000/svg">
<path d="M11.3339 4C13.2789 4.00001 15.1442 4.77278 16.5196 6.14814C17.8949 7.52349 18.6677 9.38883 18.6677 11.3339C18.6677 12.8284 18.2098 14.2745 17.3746 15.4888L20 18.1136L19.0571 19.0571L18.1136 20L15.4888 17.3746C14.2745 18.2098 12.8284 18.6677 11.3339 18.6677C9.38883 18.6677 7.52349 17.8949 6.14814 16.5196C4.85866 15.2301 4.09897 13.51 4.00912 11.6972L4 11.3339C4 9.38881 4.77277 7.5235 6.14814 6.14814C7.5235 4.77277 9.38881 4 11.3339 4ZM11.3339 6.00033C9.91933 6.00033 8.56265 6.5622 7.56242 7.56242C6.5622 8.56265 6.00033 9.91933 6.00033 11.3339L6.00683 11.5982C6.07221 12.9165 6.62469 14.1676 7.56242 15.1053C8.56265 16.1055 9.91934 16.6674 11.3339 16.6674C12.7484 16.6674 14.1051 16.1055 15.1053 15.1053C16.1055 14.1051 16.6674 12.7484 16.6674 11.3339C16.6674 9.91934 16.1055 8.56265 15.1053 7.56242C14.1051 6.5622 12.7484 6.00033 11.3339 6.00033ZM11.8379 7.83069C11.9193 9.46 13.2078 10.7484 14.837 10.8299L15.0011 10.8338V11.8339C13.24 11.8339 11.8339 13.24 11.8339 15.0011H10.8338L10.8299 14.837C10.7457 13.1534 9.37274 11.8339 7.66661 11.8339V10.8338L7.83069 10.8299C9.51432 10.7457 10.8338 9.37274 10.8338 7.66661H11.8339L11.8379 7.83069Z" fill="#2D4855"/>
</svg>
