<svg width="24" height="24" viewBox="0 0 24 24" fill="none" xmlns="http://www.w3.org/2000/svg">
<path fill-rule="evenodd" clip-rule="evenodd" d="M6.83413 5.89148L11.9999 11.0573L17.1658 5.8914C15.7272 4.67474 13.8984 4 12 4C10.1016 4 8.27275 4.67477 6.83413 5.89148ZM11.0571 12.0001L5.89133 6.8343C4.67471 8.2729 4 10.1017 4 12C4 13.8984 4.67474 15.7272 5.8914 17.1658L11.0571 12.0001ZM11.9999 12.9429L17.1657 18.1087C15.7271 19.3253 13.8983 20 12 20C10.1016 20 8.27282 19.3253 6.83421 18.1086L11.9999 12.9429ZM18.1085 17.1659L12.9427 12.0001L18.1086 6.83421C19.3253 8.27282 20 10.1016 20 12C20 13.8984 19.3253 15.7273 18.1085 17.1659Z" fill="#EBF2EE"/>
</svg>
