<svg width="24" height="24" viewBox="0 0 24 24" fill="none" xmlns="http://www.w3.org/2000/svg">
<path fill-rule="evenodd" clip-rule="evenodd" d="M8.3493 4L8.34926 16.3333H10.0159L10.0159 17.3333L7.34925 20L4.68262 17.3334V16.3333H6.34926L6.3493 4L8.3493 4ZM14.996 12.3333H17.036L17.1842 12.7968L19.3176 19.4635L18.0477 19.8699L17.5049 18.1737H14.527L13.9842 19.8699L12.7144 19.4635L14.8477 12.7968L14.996 12.3333ZM14.9537 16.8404H17.0782L16.0626 13.6667H15.9693L14.9537 16.8404ZM17.2776 5.33333H13.3493V4H18.6826V5.74921L18.5192 5.93732L14.9883 10H18.6826V11.3333H13.2211V10.0008L13.3846 9.81268L17.2776 5.33333Z" fill="#2D4855"/>
</svg>
