<svg width="24" height="24" viewBox="0 0 24 24" fill="none" xmlns="http://www.w3.org/2000/svg">
<path fill-rule="evenodd" clip-rule="evenodd" d="M7.46426 4H9.5042L9.65251 4.46348L11.7859 11.1301L10.516 11.5365L9.97322 9.84049H6.99524L6.45251 11.5365L5.18262 11.1301L7.31595 4.46348L7.46426 4ZM8.53093 5.33333L9.54656 8.50716H7.42191L8.43753 5.33333H8.53093ZM5.81756 14H9.74582L5.85284 18.4793L5.68936 18.6675V20H11.1509V18.6667H7.45656L10.9875 14.604L11.1509 14.4159V12.6667H5.81756V14ZM18.8176 7.66667H12.8176V6.33333H18.8176V7.66667ZM12.8176 11H18.8176V9.66667H12.8176V11ZM18.8176 14.3333H12.8176V13H18.8176V14.3333ZM12.8176 17.6667H18.8176V16.3333H12.8176V17.6667Z" fill="#2D4855"/>
</svg>
