<svg width="24" height="24" viewBox="0 0 24 24" fill="none" xmlns="http://www.w3.org/2000/svg">
<path fill-rule="evenodd" clip-rule="evenodd" d="M12.0006 4H6.66724V8.66667H12.0006V4ZM14.0006 10H4.66724V20H14.0006V10ZM16.0006 6.66643C16.0006 7.21906 15.5526 7.66707 15 7.66717C14.4473 7.66717 13.9992 7.21929 13.9992 6.6666C13.9992 6.11397 14.4472 5.66579 14.9998 5.66569C15.5525 5.66569 16.0006 6.11373 16.0006 6.66643ZM18.333 6.00073C18.8851 6.00033 19.3326 5.55261 19.3326 5.00037C19.3326 4.44788 18.8847 4 18.3322 4C17.7801 4.0004 17.3326 4.4482 17.3326 5.00045C17.3326 5.55293 17.7805 6.00073 18.333 6.00073ZM17.3326 8.33207C17.3326 7.77959 17.7805 7.33171 18.333 7.33171C18.8851 7.3321 19.3326 7.78007 19.3326 8.33231C19.3326 8.8848 18.8847 9.33244 18.3322 9.33244C17.7801 9.33204 17.3326 8.88431 17.3326 8.33207Z" fill="#7A3084"/>
</svg>
